{
    "asset" : {
        "generator" : "Khronos glTF Blender I/O v1.8.19",
        "version" : "2.0"
    },
    "scene" : 0,
    "scenes" : [
        {
            "name" : "Scene",
            "nodes" : [
                0
            ]
        }
    ],
    "nodes" : [
        {
            "mesh" : 0,
            "name" : "Server"
        }
    ],
    "materials" : [
        {
            "doubleSided" : true,
            "name" : "Case",
            "pbrMetallicRoughness" : {
                "baseColorFactor" : [
                    0.41156715154647827,
                    0.41156715154647827,
                    0.41156715154647827,
                    1
                ],
                "metallicFactor" : 0.9082568883895874,
                "roughnessFactor" : 0.1376146823167801
            }
        },
        {
            "doubleSided" : true,
            "emissiveFactor" : [
                0.23003624752163887,
                1,
                0
            ],
            "name" : "Glow",
            "pbrMetallicRoughness" : {
                "baseColorFactor" : [
                    0.023939641192555428,
                    0.5457164645195007,
                    0,
                    1
                ],
                "metallicFactor" : 0,
                "roughnessFactor" : 0.5
            }
        }
    ],
    "meshes" : [
        {
            "name" : "Cube",
            "primitives" : [
                {
                    "attributes" : {
                        "POSITION" : 0,
                        "NORMAL" : 1,
                        "TEXCOORD_0" : 2
                    },
                    "indices" : 3,
                    "material" : 0
                },
                {
                    "attributes" : {
                        "POSITION" : 4,
                        "NORMAL" : 5,
                        "TEXCOORD_0" : 6
                    },
                    "indices" : 7,
                    "material" : 1
                }
            ]
        }
    ],
    "accessors" : [
        {
            "bufferView" : 0,
            "componentType" : 5126,
            "count" : 4493,
            "max" : [
                0.5,
                1,
                0.800000011920929
            ],
            "min" : [
                -0.5,
                -1,
                -0.800000011920929
            ],
            "type" : "VEC3"
        },
        {
            "bufferView" : 1,
            "componentType" : 5126,
            "count" : 4493,
            "type" : "VEC3"
        },
        {
            "bufferView" : 2,
            "componentType" : 5126,
            "count" : 4493,
            "type" : "VEC2"
        },
        {
            "bufferView" : 3,
            "componentType" : 5123,
            "count" : 6912,
            "type" : "SCALAR"
        },
        {
            "bufferView" : 4,
            "componentType" : 5126,
            "count" : 269,
            "max" : [
                0.48076367378234863,
                0.9844126105308533,
                0.7849953174591064
            ],
            "min" : [
                -0.499353289604187,
                -0.9944828748703003,
                -0.7868380546569824
            ],
            "type" : "VEC3"
        },
        {
            "bufferView" : 5,
            "componentType" : 5126,
            "count" : 269,
            "type" : "VEC3"
        },
        {
            "bufferView" : 6,
            "componentType" : 5126,
            "count" : 269,
            "type" : "VEC2"
        },
        {
            "bufferView" : 7,
            "componentType" : 5123,
            "count" : 408,
            "type" : "SCALAR"
        }
    ],
    "bufferViews" : [
        {
            "buffer" : 0,
            "byteLength" : 53916,
            "byteOffset" : 0
        },
        {
            "buffer" : 0,
            "byteLength" : 53916,
            "byteOffset" : 53916
        },
        {
            "buffer" : 0,
            "byteLength" : 35944,
            "byteOffset" : 107832
        },
        {
            "buffer" : 0,
            "byteLength" : 13824,
            "byteOffset" : 143776
        },
        {
            "buffer" : 0,
            "byteLength" : 3228,
            "byteOffset" : 157600
        },
        {
            "buffer" : 0,
            "byteLength" : 3228,
            "byteOffset" : 160828
        },
        {
            "buffer" : 0,
            "byteLength" : 2152,
            "byteOffset" : 164056
        },
        {
            "buffer" : 0,
            "byteLength" : 816,
            "byteOffset" : 166208
        }
    ],
    "buffers" : [
        {
            "byteLength" : 167024,
            "uri" : "data:application/octet-stream;base64,"
        }
    ]
}
