{
    "asset" : {
        "generator" : "Khronos glTF Blender I/O v1.8.19",
        "version" : "2.0"
    },
    "scene" : 0,
    "scenes" : [
        {
            "name" : "Scene",
            "nodes" : [
                0
            ]
        }
    ],
    "nodes" : [
        {
            "mesh" : 0,
            "name" : "Cube"
        }
    ],
    "materials" : [
        {
            "doubleSided" : true,
            "name" : "Material",
            "pbrMetallicRoughness" : {
                "baseColorFactor" : [
                    0.01027263980358839,
                    0.01027263980358839,
                    0.01027263980358839,
                    1
                ],
                "metallicFactor" : 0,
                "roughnessFactor" : 0.4000000059604645
            }
        },
        {
            "doubleSided" : true,
            "name" : "Screen",
            "pbrMetallicRoughness" : {
                "baseColorFactor" : [
                    0.7842302322387695,
                    0.7842302322387695,
                    0.7842302322387695,
                    1
                ],
                "metallicFactor" : 0,
                "roughnessFactor" : 0.09633028507232666
            }
        }
    ],
    "meshes" : [
        {
            "name" : "Cube",
            "primitives" : [
                {
                    "attributes" : {
                        "POSITION" : 0,
                        "NORMAL" : 1,
                        "TEXCOORD_0" : 2
                    },
                    "indices" : 3,
                    "material" : 0
                },
                {
                    "attributes" : {
                        "POSITION" : 4,
                        "NORMAL" : 5,
                        "TEXCOORD_0" : 6
                    },
                    "indices" : 7,
                    "material" : 1
                }
            ]
        }
    ],
    "accessors" : [
        {
            "bufferView" : 0,
            "componentType" : 5126,
            "count" : 236,
            "max" : [
                1.1256998777389526,
                0.7634233236312866,
                0.1473107933998108
            ],
            "min" : [
                -1.1256998777389526,
                -1.3180406093597412,
                -0.7475435137748718
            ],
            "type" : "VEC3"
        },
        {
            "bufferView" : 1,
            "componentType" : 5126,
            "count" : 236,
            "type" : "VEC3"
        },
        {
            "bufferView" : 2,
            "componentType" : 5126,
            "count" : 236,
            "type" : "VEC2"
        },
        {
            "bufferView" : 3,
            "componentType" : 5123,
            "count" : 366,
            "type" : "SCALAR"
        },
        {
            "bufferView" : 4,
            "componentType" : 5126,
            "count" : 4,
            "max" : [
                1.0464882850646973,
                0.6702990531921387,
                0.10790032148361206
            ],
            "min" : [
                -1.0464882850646973,
                -0.7963082790374756,
                0.10790032148361206
            ],
            "type" : "VEC3"
        },
        {
            "bufferView" : 5,
            "componentType" : 5126,
            "count" : 4,
            "type" : "VEC3"
        },
        {
            "bufferView" : 6,
            "componentType" : 5126,
            "count" : 4,
            "type" : "VEC2"
        },
        {
            "bufferView" : 7,
            "componentType" : 5123,
            "count" : 6,
            "type" : "SCALAR"
        }
    ],
    "bufferViews" : [
        {
            "buffer" : 0,
            "byteLength" : 2832,
            "byteOffset" : 0
        },
        {
            "buffer" : 0,
            "byteLength" : 2832,
            "byteOffset" : 2832
        },
        {
            "buffer" : 0,
            "byteLength" : 1888,
            "byteOffset" : 5664
        },
        {
            "buffer" : 0,
            "byteLength" : 732,
            "byteOffset" : 7552
        },
        {
            "buffer" : 0,
            "byteLength" : 48,
            "byteOffset" : 8284
        },
        {
            "buffer" : 0,
            "byteLength" : 48,
            "byteOffset" : 8332
        },
        {
            "buffer" : 0,
            "byteLength" : 32,
            "byteOffset" : 8380
        },
        {
            "buffer" : 0,
            "byteLength" : 12,
            "byteOffset" : 8412
        }
    ],
    "buffers" : [
        {
            "byteLength" : 8424,
            "uri" : "data:application/octet-stream;base64,"
        }
    ]
}
