{
    "asset" : {
        "generator" : "Khronos glTF Blender I/O v1.8.19",
        "version" : "2.0"
    },
    "scene" : 0,
    "scenes" : [
        {
            "name" : "Scene",
            "nodes" : [
                0
            ]
        }
    ],
    "nodes" : [
        {
            "mesh" : 0,
            "name" : "Server"
        }
    ],
    "materials" : [
        {
            "doubleSided" : true,
            "name" : "Case",
            "pbrMetallicRoughness" : {
                "baseColorFactor" : [
                    0.10878974199295044,
                    0.10878974199295044,
                    0.10878974199295044,
                    1
                ],
                "metallicFactor" : 0,
                "roughnessFactor" : 0.4000000059604645
            }
        },
        {
            "doubleSided" : true,
            "emissiveFactor" : [
                0.23003624752163887,
                1,
                0
            ],
            "name" : "Glow",
            "pbrMetallicRoughness" : {
                "baseColorFactor" : [
                    0.023939641192555428,
                    0.5457164645195007,
                    0,
                    1
                ],
                "metallicFactor" : 0,
                "roughnessFactor" : 0.5
            }
        }
    ],
    "meshes" : [
        {
            "name" : "Cube",
            "primitives" : [
                {
                    "attributes" : {
                        "POSITION" : 0,
                        "NORMAL" : 1,
                        "TEXCOORD_0" : 2
                    },
                    "indices" : 3,
                    "material" : 0
                },
                {
                    "attributes" : {
                        "POSITION" : 4,
                        "NORMAL" : 5,
                        "TEXCOORD_0" : 6
                    },
                    "indices" : 7,
                    "material" : 1
                }
            ]
        }
    ],
    "accessors" : [
        {
            "bufferView" : 0,
            "componentType" : 5126,
            "count" : 1517,
            "max" : [
                0.5,
                1,
                0.800000011920929
            ],
            "min" : [
                -0.5,
                -1,
                -0.800000011920929
            ],
            "type" : "VEC3"
        },
        {
            "bufferView" : 1,
            "componentType" : 5126,
            "count" : 1517,
            "type" : "VEC3"
        },
        {
            "bufferView" : 2,
            "componentType" : 5126,
            "count" : 1517,
            "type" : "VEC2"
        },
        {
            "bufferView" : 3,
            "componentType" : 5123,
            "count" : 2670,
            "type" : "SCALAR"
        },
        {
            "bufferView" : 4,
            "componentType" : 5126,
            "count" : 140,
            "max" : [
                0.5,
                1,
                0.7799233198165894
            ],
            "min" : [
                -0.5,
                -1,
                -0.7817392349243164
            ],
            "type" : "VEC3"
        },
        {
            "bufferView" : 5,
            "componentType" : 5126,
            "count" : 140,
            "type" : "VEC3"
        },
        {
            "bufferView" : 6,
            "componentType" : 5126,
            "count" : 140,
            "type" : "VEC2"
        },
        {
            "bufferView" : 7,
            "componentType" : 5123,
            "count" : 282,
            "type" : "SCALAR"
        }
    ],
    "bufferViews" : [
        {
            "buffer" : 0,
            "byteLength" : 18204,
            "byteOffset" : 0
        },
        {
            "buffer" : 0,
            "byteLength" : 18204,
            "byteOffset" : 18204
        },
        {
            "buffer" : 0,
            "byteLength" : 12136,
            "byteOffset" : 36408
        },
        {
            "buffer" : 0,
            "byteLength" : 5340,
            "byteOffset" : 48544
        },
        {
            "buffer" : 0,
            "byteLength" : 1680,
            "byteOffset" : 53884
        },
        {
            "buffer" : 0,
            "byteLength" : 1680,
            "byteOffset" : 55564
        },
        {
            "buffer" : 0,
            "byteLength" : 1120,
            "byteOffset" : 57244
        },
        {
            "buffer" : 0,
            "byteLength" : 564,
            "byteOffset" : 58364
        }
    ],
    "buffers" : [
        {
            "byteLength" : 58928,
            "uri" : "data:application/octet-stream;base64,"
        }
    ]
}
